<svg viewBox="0 0 46.4 52" fill="none" xmlns="http://www.w3.org/2000/svg">
<path d="M43.7048 40.8195L25.7814 51.1675C24.9847 51.6258 24.0818 51.867 23.1627 51.867C22.2436 51.867 21.3403 51.6258 20.5436 51.1675L2.62021 40.8195C1.82423 40.359 1.16316 39.6973 0.703542 38.9008C0.243919 38.1043 0.00192932 37.201 0.00149135 36.2814V15.5855C0.00249271 14.666 0.244657 13.7629 0.704223 12.9665C1.16379 12.1701 1.82461 11.5083 2.62021 11.0473L20.5436 0.703542C21.3396 0.243308 22.2432 0.000980655 23.1627 0.000980655C24.0822 0.000980655 24.9854 0.243308 25.7814 0.703542L43.7048 11.0473C44.5002 11.5083 45.1605 12.1702 45.6196 12.9666C46.0787 13.7631 46.3205 14.6662 46.3208 15.5855V36.28C46.3209 37.1994 46.0794 38.1026 45.6203 38.8991C45.1611 39.6957 44.5004 40.3575 43.7048 40.8181" fill="#FEC437"/>
<path d="M40.532 33.946V17.9195C40.532 17.3069 40.3707 16.7051 40.0644 16.1746C39.7581 15.6441 39.3176 15.2036 38.7871 14.8973L24.9075 6.8805C24.3763 6.57624 23.7747 6.41616 23.1626 6.41616C22.5504 6.41616 21.9489 6.57624 21.4177 6.8805L7.53923 14.8973C7.00873 15.2036 6.56821 15.6441 6.26191 16.1746C5.95562 16.7051 5.79435 17.3069 5.79433 17.9195V33.946C5.7941 34.5588 5.95527 35.1609 6.26157 35.6917C6.56788 36.2224 7.00853 36.6632 7.53923 36.9696L21.4177 44.985C21.9482 45.2913 22.55 45.4525 23.1626 45.4525C23.7752 45.4525 24.377 45.2913 24.9075 44.985L38.7871 36.9696C39.3178 36.6632 39.7585 36.2224 40.0648 35.6917C40.3711 35.1609 40.5322 34.5588 40.532 33.946Z" fill="#2E1A46"/>
<path d="M33.583 30.9392V20.9235C33.5832 20.6171 33.5025 20.3161 33.3491 20.0509C33.1956 19.7857 32.9749 19.5657 32.7092 19.4131L24.035 14.4017C23.7691 14.2497 23.4681 14.1697 23.1619 14.1697C22.8556 14.1697 22.5546 14.2497 22.2887 14.4017L13.6116 19.4131C13.3466 19.5662 13.1265 19.7864 12.9736 20.0516C12.8207 20.3167 12.7403 20.6174 12.7405 20.9235V30.9392C12.7401 31.2463 12.8204 31.548 12.9733 31.8143C13.1261 32.0806 13.3462 32.3021 13.6116 32.4566L22.2887 37.4637C22.554 37.6177 22.8552 37.6988 23.1619 37.6988C23.4685 37.6988 23.7697 37.6177 24.035 37.4637L32.7092 32.4566C32.9752 32.3025 33.1959 32.0812 33.3492 31.8149C33.5026 31.5486 33.5833 31.2466 33.583 30.9392Z" fill="#FEC437"/>
</svg>
