<svg preserveAspectRatio="none" width="100%" height="100%" overflow="visible" style="display: block;" viewBox="0 0 220 51.8669" fill="none" xmlns="http://www.w3.org/2000/svg">
<g id="Logomarca Omnibees 1" clip-path="url(#clip0_0_4)">
<path id="Caminho 2580" d="M43.7048 40.8195L25.7814 51.1675C24.9847 51.6258 24.0818 51.867 23.1627 51.867C22.2436 51.867 21.3403 51.6258 20.5436 51.1675L2.62021 40.8195C1.82423 40.359 1.16316 39.6973 0.703542 38.9008C0.243919 38.1043 0.00192932 37.201 0.00149135 36.2814V15.5855C0.00249271 14.666 0.244657 13.7629 0.704223 12.9665C1.16379 12.1701 1.82461 11.5083 2.62021 11.0473L20.5436 0.703542C21.3396 0.243308 22.2432 0.000980655 23.1627 0.000980655C24.0822 0.000980655 24.9854 0.243308 25.7814 0.703542L43.7048 11.0473C44.5002 11.5083 45.1605 12.1702 45.6196 12.9666C46.0787 13.7631 46.3205 14.6662 46.3208 15.5855V36.28C46.3209 37.1994 46.0794 38.1026 45.6203 38.8991C45.1611 39.6957 44.5004 40.3575 43.7048 40.8181" fill="var(--fill-0, #FEC437)"/>
<path id="Caminho 2581" d="M40.532 33.946V17.9195C40.532 17.3069 40.3707 16.7051 40.0644 16.1746C39.7581 15.6441 39.3176 15.2036 38.7871 14.8973L24.9075 6.8805C24.3763 6.57624 23.7747 6.41616 23.1626 6.41616C22.5504 6.41616 21.9489 6.57624 21.4177 6.8805L7.53923 14.8973C7.00873 15.2036 6.56821 15.6441 6.26191 16.1746C5.95562 16.7051 5.79435 17.3069 5.79433 17.9195V33.946C5.7941 34.5588 5.95527 35.1609 6.26157 35.6917C6.56788 36.2224 7.00853 36.6632 7.53923 36.9696L21.4177 44.985C21.9482 45.2913 22.55 45.4525 23.1626 45.4525C23.7752 45.4525 24.377 45.2913 24.9075 44.985L38.7871 36.9696C39.3178 36.6632 39.7585 36.2224 40.0648 35.6917C40.3711 35.1609 40.5322 34.5588 40.532 33.946Z" fill="var(--fill-0, #2E1A46)"/>
<path id="Caminho 2582" d="M33.583 30.9392V20.9235C33.5832 20.6171 33.5025 20.3161 33.3491 20.0509C33.1956 19.7857 32.9749 19.5657 32.7092 19.4131L24.035 14.4017C23.7691 14.2497 23.4681 14.1697 23.1619 14.1697C22.8556 14.1697 22.5546 14.2497 22.2887 14.4017L13.6116 19.4131C13.3466 19.5662 13.1265 19.7864 12.9736 20.0516C12.8207 20.3167 12.7403 20.6174 12.7405 20.9235V30.9392C12.7401 31.2463 12.8204 31.548 12.9733 31.8143C13.1261 32.0806 13.3462 32.3021 13.6116 32.4566L22.2887 37.4637C22.554 37.6177 22.8552 37.6988 23.1619 37.6988C23.4685 37.6988 23.7697 37.6177 24.035 37.4637L32.7092 32.4566C32.9752 32.3025 33.1959 32.0812 33.3492 31.8149C33.5026 31.5486 33.5833 31.2466 33.583 30.9392Z" fill="var(--fill-0, #FEC437)"/>
<g id="Grupo 5505">
<path id="Caminho 2583" d="M219.657 16.4091L217.023 18.8784L214.394 16.4091H214.066V22.1979H215.445V19.1144L216.915 20.534H217.151L218.604 19.1381V22.1979H220V16.4105L219.657 16.4091ZM208.368 17.6458H210.015V22.1979H211.411V17.6472H213.086V16.4105H208.369L208.368 17.6458Z" fill="var(--fill-0, #2E1A46)"/>
<path id="Caminho 2584" d="M199.648 35.4215H191.894V32.6297H199.648C200.343 32.6293 201.01 32.353 201.501 31.8615C201.993 31.37 202.27 30.7034 202.27 30.0081C202.269 29.3127 201.993 28.646 201.501 28.1541C201.009 27.6623 200.343 27.3853 199.648 27.3838H196.61C195.154 27.3823 193.759 26.8031 192.73 25.7735C191.701 24.7438 191.123 23.3479 191.123 21.8922C191.125 20.4377 191.704 19.0434 192.732 18.015C193.761 16.9866 195.155 16.4081 196.61 16.4063H202.562V19.1981H196.61C195.895 19.1992 195.209 19.4838 194.703 19.9896C194.197 20.4953 193.912 21.181 193.91 21.8964C193.91 22.6132 194.194 23.3008 194.7 23.8084C195.207 24.316 195.893 24.6023 196.61 24.6045H199.648C201.081 24.606 202.456 25.1762 203.47 26.19C204.484 27.2038 205.055 28.5784 205.057 30.0123C205.056 31.4468 204.486 32.8224 203.472 33.8369C202.457 34.8514 201.082 35.4204 199.648 35.4215Z" fill="var(--fill-0, #2E1A46)"/>
<path id="Caminho 2585" d="M54.7396 25.9488C54.6822 24.6266 54.9004 23.307 55.3801 22.0736C55.8598 20.8403 56.5905 19.72 57.5261 18.7841C58.4617 17.8481 59.5817 17.1168 60.8148 16.6366C62.048 16.1564 63.3676 15.9377 64.6898 15.9945C66.0139 15.935 67.3359 16.1516 68.5718 16.6305C69.8077 17.1094 70.9305 17.8401 71.8689 18.7762C72.8073 19.7124 73.5406 20.8334 74.0224 22.0682C74.5043 23.303 74.724 24.6245 74.6677 25.9488C74.7175 27.2694 74.4928 28.586 74.0081 29.8154C73.5234 31.0448 72.7891 32.1604 71.8515 33.0917C70.9139 34.023 69.7934 34.7499 68.5607 35.2263C67.3281 35.7027 66.01 35.9185 64.6898 35.8598C63.3715 35.9155 62.0561 35.6976 60.8263 35.2198C59.5964 34.7419 58.479 34.0145 57.5442 33.0834C56.6094 32.1523 55.8776 31.0377 55.3949 29.8097C54.9122 28.5818 54.689 27.2672 54.7396 25.9488ZM71.439 25.9488C71.4876 25.0408 71.3479 24.1325 71.0285 23.2812C70.709 22.4298 70.2167 21.6538 69.5828 21.0019C68.9489 20.35 68.1869 19.8363 67.3448 19.4932C66.5027 19.1501 65.5988 18.985 64.6898 19.0083C63.7829 18.988 62.8818 19.1555 62.0427 19.5001C61.2037 19.8446 60.4449 20.3589 59.8141 21.0106C59.1832 21.6623 58.6939 22.4374 58.3768 23.2872C58.0596 24.137 57.9215 25.0431 57.9712 25.9488C57.9256 26.8505 58.067 27.7519 58.3865 28.5964C58.7059 29.4408 59.1963 30.2102 59.8272 30.856C60.4581 31.5019 61.2159 32.0103 62.0526 32.3494C62.8894 32.6885 63.7872 32.8509 64.6898 32.8265C65.5944 32.8536 66.4947 32.6932 67.3344 32.3554C68.174 32.0177 68.9348 31.5098 69.5687 30.8639C70.2026 30.2179 70.696 29.4478 71.0179 28.6019C71.3398 27.7561 71.4831 26.8527 71.439 25.9488Z" fill="var(--fill-0, #2E1A46)"/>
<path id="Caminho 2586" d="M94.9157 23.0355L88.8951 29.3088H88.1665L82.115 23.0355V35.4229H78.9785V16.4105H79.8663L88.5209 25.2843L97.2357 16.4105H98.0592V35.4229H94.9227L94.9157 23.0355Z" fill="var(--fill-0, #2E1A46)"/>
<path id="Caminho 2587" d="M120.739 35.4201H119.915L106.766 22.6823V35.4201H103.629V16.4077H104.453L117.602 28.957V16.4077H120.739V35.4201Z" fill="var(--fill-0, #2E1A46)"/>
<path id="Ret&#195;&#162;ngulo 2543" d="M129.452 16.4091H126.313V35.4215H129.452V16.4091Z" fill="var(--fill-0, #2E1A46)"/>
<path id="Caminho 2588" d="M168.548 27.3419H158.979V32.6311H170.259V35.4229H155.841V16.4105H170.259V19.2023H158.979V24.6841H168.548V27.3419Z" fill="var(--fill-0, #2E1A46)"/>
<path id="Caminho 2589" d="M187.242 27.3419H177.671V32.6311H188.95V35.4229H174.535V16.4105H188.95V19.2023H177.671V24.6841H187.242V27.3419Z" fill="var(--fill-0, #2E1A46)"/>
<path id="Caminho 2590" d="M148.081 25.8273V25.5481C148.879 25.2457 149.562 24.7007 150.034 23.9898C150.506 23.2789 150.743 22.4379 150.712 21.5851C150.712 18.2545 148.24 16.4202 143.872 16.4202H135.061V35.4327H144.188C148.495 35.4327 151.317 33.597 151.317 30.0179C151.331 29.0574 151.019 28.1204 150.432 27.3598C149.845 26.5993 149.018 26.0601 148.085 25.8301M144.281 32.6408H138.199V19.2051H143.807C146.09 19.2051 147.454 20.0971 147.454 21.9006C147.454 23.4878 146.09 24.5626 143.807 24.5626H142.411C142.128 24.5623 141.856 24.6739 141.655 24.8733C141.454 25.0726 141.34 25.3433 141.338 25.6263V25.9962C141.339 26.1365 141.367 26.2754 141.421 26.4048C141.475 26.5342 141.554 26.6517 141.654 26.7505C141.753 26.8493 141.871 26.9275 142.001 26.9806C142.131 27.0337 142.27 27.0607 142.411 27.0599H144.541C146.536 27.0599 148.031 28.1767 148.031 29.8239C148.031 31.6232 146.446 32.6394 144.289 32.6394" fill="var(--fill-0, #2E1A46)"/>
</g>
</g>
<defs>
<clipPath id="clip0_0_4">
<rect width="220" height="51.8669" fill="white"/>
</clipPath>
</defs>
</svg>
